<?xml version="1.0" encoding="UTF-8" standalone="no"?>
<!-- Created with Inkscape (http://www.inkscape.org/) -->

<svg
   width="449.50882mm"
   height="449.50882mm"
   viewBox="0 0 449.50882 449.50882"
   version="1.1"
   id="svg45655"
   inkscape:version="1.2 (dc2aedaf03, 2022-05-15)"
   sodipodi:docname="logo_circle.svg"
   xmlns:inkscape="http://www.inkscape.org/namespaces/inkscape"
   xmlns:sodipodi="http://sodipodi.sourceforge.net/DTD/sodipodi-0.dtd"
   xmlns:xlink="http://www.w3.org/1999/xlink"
   xmlns="http://www.w3.org/2000/svg"
   xmlns:svg="http://www.w3.org/2000/svg">
  <sodipodi:namedview
     id="namedview45657"
     pagecolor="#ffffff"
     bordercolor="#000000"
     borderopacity="0.25"
     inkscape:showpageshadow="2"
     inkscape:pageopacity="0.0"
     inkscape:pagecheckerboard="0"
     inkscape:deskcolor="#d1d1d1"
     inkscape:document-units="mm"
     showgrid="false"
     inkscape:zoom="0.50646226"
     inkscape:cx="985.26591"
     inkscape:cy="762.14958"
     inkscape:window-width="1920"
     inkscape:window-height="991"
     inkscape:window-x="-9"
     inkscape:window-y="-9"
     inkscape:window-maximized="1"
     inkscape:current-layer="layer1" />
  <defs
     id="defs45652">
    <linearGradient
       inkscape:collect="always"
       xlink:href="#linearGradient43976"
       id="linearGradient120087"
       gradientUnits="userSpaceOnUse"
       x1="142.3342"
       y1="86.94561"
       x2="121.53373"
       y2="125.73293" />
    <linearGradient
       inkscape:collect="always"
       id="linearGradient43976">
      <stop
         style="stop-color:#120448;stop-opacity:1;"
         offset="0"
         id="stop43972" />
      <stop
         style="stop-color:#8fc3e7;stop-opacity:1;"
         offset="1"
         id="stop43974" />
    </linearGradient>
  </defs>
  <g
     inkscape:label="Layer 1"
     inkscape:groupmode="layer"
     id="layer1"
     transform="translate(92.508143,64.433513)">
    <circle
       style="display:inline;fill:#e0e2f0;fill-opacity:1;stroke:#e0e2f0;stroke-width:3.27001;stroke-linecap:round;stroke-linejoin:round;stroke-miterlimit:15.6;stroke-opacity:1"
       id="path53699"
       cx="132.24626"
       cy="160.32089"
       r="223.1194" />
    <g
       id="g133075"
       transform="matrix(3.072692,0,0,3.072692,-3641.5189,-1286.1604)"
       style="display:inline;stroke-width:0.325448">
      <g
         id="g120061"
         transform="matrix(0.904078,-0.36716186,0.36716186,0.904078,1084.911,398.07072)"
         style="stroke-width:0.333522">
        <path
           id="path120039"
           style="fill:url(#linearGradient120087);fill-opacity:1;stroke-width:1.09062;stroke-linecap:round;stroke-linejoin:round;stroke-miterlimit:15.6"
           d="m 106.38782,79.421509 c -19.790369,0.01693 -38.004436,10.799089 -47.538699,28.141431 5.397151,-4.54637 12.230647,-9.438441 17.821135,-10.63914 1.251662,-0.298902 2.534099,-0.450569 3.820955,-0.452169 6.48074,0.01658 12.354275,3.817249 15.024406,9.722399 2.139631,-2.16494 7.197753,-3.1186 10.190593,-2.56366 9.68146,1.79518 6.93226,12.68481 20.96978,9.82007 7.208,-1.2e-4 13.05153,5.84288 13.0514,13.05088 -0.0589,4.45207 -1.92477,8.18487 1.07383,11.544 1.80446,1.58371 4.1082,2.85909 7.18096,2.63136 8.3692,1.53349 9.82212,6.50025 9.66826,7.11438 3.00512,-9.61845 1.8577,-3.87009 3.04001,-14.06744 -7e-5,-29.9904 -24.31223,-54.302329 -54.30263,-54.302111 z"
           sodipodi:nodetypes="cccccsccccccc" />
        <g
           id="g120059"
           style="stroke-width:0.333522">
          <circle
             style="fill:#ffffff;fill-opacity:1;stroke-width:1.09062;stroke-linecap:round;stroke-linejoin:round;stroke-miterlimit:15.6"
             id="circle120041"
             cx="102.58919"
             cy="88.875801"
             r="0.58771652" />
          <circle
             style="fill:#ffffff;fill-opacity:1;stroke-width:1.09062;stroke-linecap:round;stroke-linejoin:round;stroke-miterlimit:15.6"
             id="circle120043"
             cx="101.66568"
             cy="92.846886"
             r="0.58771652" />
          <circle
             style="fill:#ffffff;fill-opacity:1;stroke-width:1.09062;stroke-linecap:round;stroke-linejoin:round;stroke-miterlimit:15.6"
             id="circle120045"
             cx="106.56027"
             cy="84.81237"
             r="0.58771652" />
          <circle
             style="fill:#ffffff;fill-opacity:1;stroke-width:1.09062;stroke-linecap:round;stroke-linejoin:round;stroke-miterlimit:15.6"
             id="circle120047"
             cx="126.50803"
             cy="103.19017"
             r="0.58771652" />
          <circle
             style="fill:#ffffff;fill-opacity:1;stroke-width:1.09062;stroke-linecap:round;stroke-linejoin:round;stroke-miterlimit:15.6"
             id="circle120049"
             cx="137.03603"
             cy="94.139793"
             r="0.58771652" />
          <circle
             style="fill:#ffffff;fill-opacity:1;stroke-width:1.09062;stroke-linecap:round;stroke-linejoin:round;stroke-miterlimit:15.6"
             id="circle120051"
             cx="144.05469"
             cy="101.6202"
             r="0.58771652" />
          <circle
             style="fill:#ffffff;fill-opacity:1;stroke-width:1.09062;stroke-linecap:round;stroke-linejoin:round;stroke-miterlimit:15.6"
             id="circle120053"
             cx="146.45581"
             cy="122.95322"
             r="0.58771652" />
          <circle
             style="fill:#ffffff;fill-opacity:1;stroke-width:1.09062;stroke-linecap:round;stroke-linejoin:round;stroke-miterlimit:15.6"
             id="circle120055"
             cx="150.4269"
             cy="126.73959"
             r="0.58771652" />
          <circle
             style="fill:#ffffff;fill-opacity:1;stroke-width:1.09062;stroke-linecap:round;stroke-linejoin:round;stroke-miterlimit:15.6"
             id="circle120057"
             cx="85.319603"
             cy="90.63047"
             r="0.58771652" />
        </g>
      </g>
      <g
         aria-label="GSA"
         id="text120065"
         style="font-size:31.7904px;font-family:Nunito;-inkscape-font-specification:Nunito;fill:#272362;stroke-width:1.06422;stroke-linecap:round;stroke-linejoin:round;stroke-miterlimit:15.6">
        <path
           d="m 1198.0483,462.0836 h 3.1666 q 3.0114,0 5.8365,1.33495 1.1797,0.58986 1.8627,1.24181 l -4.129,3.19767 q -1.0866,-1.39704 -3.0114,-1.6454 -0.3105,-0.031 -0.5588,-0.031 h -3.1666 q -2.1111,0 -3.415,1.89377 -0.9003,1.33495 -0.9003,2.98035 v 5.65024 q 0,2.42154 1.7385,3.88067 1.2108,0.99345 2.6389,0.99345 h 6.1159 v -7.66819 h 4.781 v 7.6061 q 0,2.11108 -1.8007,3.35289 -1.2107,0.80718 -2.6699,0.80718 h -6.4263 q -3.8497,0 -6.5506,-2.73199 -2.5768,-2.6078 -2.5768,-6.24011 v -5.65024 q 0,-3.81858 2.7631,-6.45743 2.6388,-2.51467 6.3022,-2.51467 z"
           style="font-family:'a Astro Space';-inkscape-font-specification:'a Astro Space';stroke-width:1.06421"
           id="path12860" />
        <path
           d="m 1212.3602,468.82044 q 0,-2.85617 2.6698,-4.84307 2.5768,-1.89377 6.147,-1.89377 h 3.1666 q 2.8873,0 5.5882,1.33495 1.1176,0.58986 1.8006,1.24181 l -4.16,3.19767 q -1.0245,-1.42808 -2.7941,-1.6454 -0.2173,-0.031 -0.4347,-0.031 h -3.1666 q -2.3284,0 -3.5081,1.30391 -0.5278,0.65195 -0.5278,1.33495 0,1.21076 2.5768,2.08003 0.8072,0.27941 2.732,0.77613 4.6568,1.21077 6.5195,2.35945 3.0424,1.86272 3.0735,4.90516 0,2.82512 -2.732,4.81202 -2.701,1.92481 -6.3953,1.92481 h -3.1667 q -3.0114,0 -5.8365,-1.33495 -1.1797,-0.58986 -1.8627,-1.24181 l 4.098,-3.16662 q 1.0866,1.36599 3.0424,1.61435 0.3105,0.031 0.5588,0.031 h 3.1667 q 2.5146,0 3.7875,-1.33495 0.5588,-0.62091 0.5588,-1.3039 0,-1.366 -2.5768,-2.26631 -0.3725,-0.15523 -4.5015,-1.27286 -4.75,-1.27286 -6.4575,-3.07348 -1.3659,-1.49018 -1.3659,-3.50812 z"
           style="font-family:'a Astro Space';-inkscape-font-specification:'a Astro Space';stroke-width:1.06421"
           id="path12862" />
        <path
           d="m 1250.8563,482.54246 h -10.3381 l 2.5458,-4.09798 h 6.3643 l -4.0359,-11.5799 -6.5816,18.81346 h -5.0915 l 6.9231,-19.74482 q 1.5212,-4.12903 4.75,-4.16007 3.2287,0.031 4.7188,4.16007 l 6.9542,19.74482 h -5.0914 z"
           style="font-family:'a Astro Space';-inkscape-font-specification:'a Astro Space';stroke-width:1.06421"
           id="path12864" />
      </g>
      <g
         aria-label="Gmunden Space Agency"
         id="text120079"
         style="font-size:6.1656px;font-family:Nunito;-inkscape-font-specification:Nunito;fill:#272362;stroke-width:1.06422;stroke-linecap:round;stroke-linejoin:round;stroke-miterlimit:15.6">
        <path
           d="m 1191.9483,495.36528 q -0.7214,0 -1.2208,-0.27129 -0.4932,-0.27129 -0.7522,-0.7707 -0.2589,-0.49941 -0.2589,-1.1838 0,-0.51791 0.1479,-0.931 0.1542,-0.4131 0.4378,-0.70288 0.2898,-0.29595 0.7029,-0.45009 0.4131,-0.1603 0.9371,-0.1603 0.3453,0 0.6906,0.0863 0.3514,0.0802 0.6597,0.27746 0.1048,0.0678 0.1357,0.16647 0.037,0.0987 0.012,0.20346 -0.025,0.0987 -0.092,0.17264 -0.068,0.074 -0.1726,0.0925 -0.099,0.0185 -0.222,-0.0493 -0.2343,-0.13565 -0.4747,-0.1973 -0.2405,-0.0617 -0.5365,-0.0617 -0.4562,0 -0.7707,0.18497 -0.3144,0.1788 -0.4747,0.52408 -0.1541,0.34527 -0.1541,0.84468 0,0.75837 0.3637,1.15297 0.3638,0.3946 1.079,0.3946 0.2466,0 0.4994,-0.0493 0.2528,-0.0493 0.4933,-0.13564 l -0.1542,0.35144 v -1.31327 h -0.6782 q -0.1541,0 -0.2404,-0.0802 -0.08,-0.0802 -0.08,-0.2158 0,-0.14181 0.08,-0.2158 0.086,-0.074 0.2404,-0.074 h 1.0173 q 0.1542,0 0.2343,0.0863 0.086,0.0802 0.086,0.2343 v 1.49824 q 0,0.13564 -0.055,0.22812 -0.049,0.0925 -0.1665,0.13565 -0.2713,0.0986 -0.6227,0.16647 -0.3515,0.0617 -0.6906,0.0617 z"
           style="font-weight:bold;-inkscape-font-specification:'Nunito Bold';stroke-width:1.06421"
           id="path12823" />
        <path
           d="m 1194.6488,495.34678 q -0.1233,0 -0.1849,-0.0678 -0.062,-0.0678 -0.062,-0.19114 v -2.57105 q 0,-0.12331 0.062,-0.18497 0.062,-0.0678 0.1788,-0.0678 0.1171,0 0.1788,0.0678 0.068,0.0617 0.068,0.18497 v 0.54257 l -0.068,-0.0863 q 0.1171,-0.34527 0.3761,-0.53024 0.2651,-0.19113 0.6289,-0.19113 0.3822,0 0.6165,0.18497 0.2405,0.1788 0.3206,0.56107 h -0.092 q 0.1109,-0.34528 0.3946,-0.54258 0.2897,-0.20346 0.672,-0.20346 0.3391,0 0.5549,0.12948 0.222,0.12947 0.333,0.39459 0.1109,0.25896 0.1109,0.65972 v 1.65238 q 0,0.12332 -0.068,0.19114 -0.062,0.0678 -0.185,0.0678 -0.1171,0 -0.1849,-0.0678 -0.062,-0.0678 -0.062,-0.19114 v -1.62771 q 0,-0.4131 -0.1418,-0.60423 -0.1418,-0.1973 -0.4809,-0.1973 -0.3699,0 -0.5857,0.25895 -0.2097,0.25279 -0.2097,0.69055 v 1.47974 q 0,0.12332 -0.068,0.19114 -0.062,0.0678 -0.185,0.0678 -0.1171,0 -0.1849,-0.0678 -0.062,-0.0678 -0.062,-0.19114 v -1.62771 q 0,-0.4131 -0.148,-0.60423 -0.1418,-0.1973 -0.4747,-0.1973 -0.3699,0 -0.5857,0.25895 -0.2097,0.25279 -0.2097,0.69055 v 1.47974 q 0,0.25896 -0.2528,0.25896 z"
           style="stroke-width:1.06421"
           id="path12825" />
        <path
           d="m 1200.7281,495.35911 q -0.3637,0 -0.6042,-0.12948 -0.2343,-0.13564 -0.3576,-0.40076 -0.1171,-0.26512 -0.1171,-0.65972 v -1.65238 q 0,-0.12948 0.062,-0.19114 0.068,-0.0616 0.185,-0.0616 0.1233,0 0.1849,0.0616 0.068,0.0617 0.068,0.19114 v 1.64621 q 0,0.3946 0.1603,0.5919 0.1664,0.19113 0.5179,0.19113 0.3822,0 0.6227,-0.25895 0.2405,-0.25896 0.2405,-0.67822 v -1.49207 q 0,-0.12948 0.062,-0.19114 0.068,-0.0616 0.1912,-0.0616 0.1171,0 0.1788,0.0616 0.068,0.0617 0.068,0.19114 v 2.57105 q 0,0.25896 -0.2405,0.25896 -0.1171,0 -0.1849,-0.0678 -0.062,-0.0678 -0.062,-0.19114 v -0.56107 l 0.08,0.0863 q -0.1234,0.36377 -0.407,0.55491 -0.2774,0.19113 -0.6474,0.19113 z"
           style="stroke-width:1.06421"
           id="path12827" />
        <path
           d="m 1203.3732,495.34678 q -0.1233,0 -0.185,-0.0678 -0.062,-0.0678 -0.062,-0.19114 v -2.57105 q 0,-0.12331 0.062,-0.18497 0.062,-0.0678 0.1788,-0.0678 0.1172,0 0.1788,0.0678 0.068,0.0617 0.068,0.18497 v 0.53024 l -0.068,-0.074 q 0.1295,-0.3576 0.4193,-0.5364 0.2959,-0.18497 0.6782,-0.18497 0.3576,0 0.5919,0.12948 0.2404,0.12947 0.3576,0.39459 0.1171,0.25896 0.1171,0.65972 v 1.65238 q 0,0.12332 -0.068,0.19114 -0.062,0.0678 -0.1788,0.0678 -0.1233,0 -0.1911,-0.0678 -0.062,-0.0678 -0.062,-0.19114 v -1.62155 q 0,-0.41926 -0.1664,-0.61039 -0.1603,-0.1973 -0.518,-0.1973 -0.413,0 -0.6597,0.25895 -0.2404,0.25279 -0.2404,0.67822 v 1.49207 q 0,0.25896 -0.2528,0.25896 z"
           style="stroke-width:1.06421"
           id="path12829" />
        <path
           d="m 1207.7693,495.35911 q -0.4008,0 -0.7029,-0.19113 -0.296,-0.19114 -0.4624,-0.53641 -0.1603,-0.35144 -0.1603,-0.82619 0,-0.48092 0.1603,-0.82619 0.1664,-0.35144 0.4624,-0.53641 0.3021,-0.19113 0.7029,-0.19113 0.4069,0 0.6967,0.20346 0.2898,0.20347 0.3884,0.54874 h -0.068 v -1.83735 q 0,-0.12331 0.062,-0.18497 0.068,-0.0678 0.1912,-0.0678 0.1171,0 0.1788,0.0678 0.068,0.0617 0.068,0.18497 v 3.92132 q 0,0.12332 -0.062,0.19114 -0.062,0.0678 -0.1849,0.0678 -0.1172,0 -0.185,-0.0678 -0.062,-0.0678 -0.062,-0.19114 v -0.58573 l 0.068,0.0863 q -0.099,0.35144 -0.3946,0.56107 -0.2898,0.20963 -0.6967,0.20963 z m 0.1048,-0.40076 q 0.2774,0 0.4871,-0.13565 0.2096,-0.13564 0.3206,-0.3946 0.1171,-0.25895 0.1171,-0.62272 0,-0.56107 -0.2528,-0.85702 -0.2466,-0.29595 -0.672,-0.29595 -0.2836,0 -0.4933,0.13564 -0.2034,0.12948 -0.3206,0.38844 -0.111,0.25279 -0.111,0.62889 0,0.5549 0.2528,0.85702 0.2528,0.29595 0.6721,0.29595 z"
           style="stroke-width:1.06421"
           id="path12831" />
        <path
           d="m 1211.5734,495.35911 q -0.4747,0 -0.82,-0.18497 -0.3391,-0.19113 -0.5302,-0.53641 -0.185,-0.34527 -0.185,-0.82619 0,-0.46858 0.185,-0.81385 0.1849,-0.35144 0.5055,-0.54874 0.3268,-0.1973 0.7522,-0.1973 0.3022,0 0.5426,0.10481 0.2405,0.0986 0.407,0.28979 0.1726,0.19113 0.2589,0.46242 0.092,0.27128 0.092,0.61039 0,0.0986 -0.055,0.14797 -0.055,0.0432 -0.1603,0.0432 h -2.1456 v -0.32677 h 2.0284 l -0.099,0.0802 q 0,-0.33294 -0.099,-0.56107 -0.099,-0.23429 -0.2897,-0.3576 -0.185,-0.12332 -0.4686,-0.12332 -0.3145,0 -0.5364,0.14798 -0.2158,0.14181 -0.3268,0.40076 -0.111,0.25279 -0.111,0.5919 v 0.037 q 0,0.56724 0.2713,0.86319 0.2775,0.29595 0.783,0.29595 0.2097,0 0.4131,-0.0555 0.2097,-0.0555 0.407,-0.18497 0.086,-0.0555 0.1541,-0.0493 0.074,0 0.1171,0.0432 0.043,0.037 0.055,0.0986 0.019,0.0555 -0.012,0.12331 -0.025,0.0678 -0.1048,0.11715 -0.2035,0.14797 -0.4809,0.22813 -0.2775,0.0802 -0.5488,0.0802 z"
           style="stroke-width:1.06421"
           id="path12833" />
        <path
           d="m 1213.7499,495.34678 q -0.1233,0 -0.185,-0.0678 -0.062,-0.0678 -0.062,-0.19114 v -2.57105 q 0,-0.12331 0.062,-0.18497 0.062,-0.0678 0.1788,-0.0678 0.1172,0 0.1788,0.0678 0.068,0.0617 0.068,0.18497 v 0.53024 l -0.068,-0.074 q 0.1295,-0.3576 0.4193,-0.5364 0.2959,-0.18497 0.6782,-0.18497 0.3576,0 0.5919,0.12948 0.2405,0.12947 0.3576,0.39459 0.1172,0.25896 0.1172,0.65972 v 1.65238 q 0,0.12332 -0.068,0.19114 -0.062,0.0678 -0.1788,0.0678 -0.1233,0 -0.1911,-0.0678 -0.062,-0.0678 -0.062,-0.19114 v -1.62155 q 0,-0.41926 -0.1664,-0.61039 -0.1603,-0.1973 -0.5179,-0.1973 -0.4131,0 -0.6598,0.25895 -0.2404,0.25279 -0.2404,0.67822 v 1.49207 q 0,0.25896 -0.2528,0.25896 z"
           style="stroke-width:1.06421"
           id="path12835" />
        <path
           d="m 1220.1005,495.36528 q -0.2713,0 -0.5426,-0.0432 -0.2713,-0.037 -0.5118,-0.11715 -0.2404,-0.0863 -0.4316,-0.20963 -0.1109,-0.074 -0.1541,-0.1788 -0.043,-0.10482 -0.031,-0.20347 0.019,-0.10481 0.08,-0.1788 0.068,-0.0802 0.1665,-0.0987 0.099,-0.0185 0.2158,0.0555 0.2713,0.16031 0.5734,0.23429 0.3021,0.074 0.6351,0.074 0.487,0 0.709,-0.1603 0.222,-0.16648 0.222,-0.42543 0,-0.2158 -0.1603,-0.33911 -0.1542,-0.12331 -0.5365,-0.20346 l -0.6782,-0.14181 q -0.5857,-0.12331 -0.8755,-0.4131 -0.2836,-0.29595 -0.2836,-0.77686 0,-0.30212 0.1233,-0.54874 0.1233,-0.24663 0.3453,-0.42543 0.2281,-0.1788 0.5364,-0.27128 0.3144,-0.0987 0.6905,-0.0987 0.37,0 0.7029,0.0925 0.333,0.0925 0.5981,0.27129 0.099,0.0678 0.1295,0.16647 0.037,0.0987 0.019,0.1973 -0.019,0.0925 -0.086,0.1603 -0.068,0.0678 -0.1726,0.0802 -0.099,0.0123 -0.2281,-0.0616 -0.2282,-0.12948 -0.4624,-0.18497 -0.2343,-0.0555 -0.5056,-0.0555 -0.2836,0 -0.4871,0.0802 -0.2035,0.0802 -0.3145,0.22813 -0.1048,0.14181 -0.1048,0.33911 0,0.22196 0.148,0.3576 0.148,0.12948 0.5056,0.20347 l 0.672,0.14181 q 0.6104,0.12947 0.9064,0.40693 0.3021,0.27745 0.3021,0.73987 0,0.29595 -0.1233,0.53641 -0.1172,0.24045 -0.3453,0.41309 -0.222,0.17264 -0.5364,0.26512 -0.3144,0.0925 -0.709,0.0925 z"
           style="font-weight:bold;-inkscape-font-specification:'Nunito Bold';stroke-width:1.06421"
           id="path12837" />
        <path
           d="m 1222.7332,496.45659 q -0.1233,0 -0.185,-0.0678 -0.062,-0.0616 -0.062,-0.18496 v -3.68703 q 0,-0.12331 0.062,-0.18497 0.062,-0.0678 0.1788,-0.0678 0.1233,0 0.185,0.0678 0.068,0.0617 0.068,0.18497 v 0.58573 l -0.068,-0.0863 q 0.099,-0.35144 0.3884,-0.5549 0.296,-0.20963 0.7029,-0.20963 0.4008,0 0.6967,0.19113 0.3021,0.18497 0.4624,0.53641 0.1665,0.34527 0.1665,0.82619 0,0.47475 -0.1665,0.82619 -0.1603,0.34527 -0.4562,0.53641 -0.296,0.19113 -0.7029,0.19113 -0.4069,0 -0.6967,-0.20347 -0.2898,-0.20963 -0.3946,-0.5549 h 0.074 v 1.60306 q 0,0.12331 -0.068,0.18496 -0.068,0.0678 -0.1849,0.0678 z m 1.1653,-1.49824 q 0.2836,0 0.4871,-0.13565 0.2096,-0.13564 0.3206,-0.3946 0.1171,-0.25895 0.1171,-0.62272 0,-0.56107 -0.2528,-0.85702 -0.2466,-0.29595 -0.672,-0.29595 -0.2775,0 -0.4871,0.13564 -0.2096,0.12948 -0.3268,0.38844 -0.111,0.25279 -0.111,0.62889 0,0.5549 0.2528,0.85702 0.2528,0.29595 0.6721,0.29595 z"
           style="stroke-width:1.06421"
           id="path12839" />
        <path
           d="m 1227.0244,495.35911 q -0.3083,0 -0.5549,-0.11715 -0.2404,-0.12331 -0.3822,-0.33294 -0.1419,-0.20963 -0.1419,-0.46858 0,-0.33295 0.1665,-0.52408 0.1727,-0.19113 0.5611,-0.27129 0.3946,-0.0802 1.0728,-0.0802 h 0.2775 v 0.32678 h -0.2713 q -0.4994,0 -0.7892,0.0493 -0.2836,0.0432 -0.4008,0.15414 -0.111,0.11098 -0.111,0.31445 0,0.25279 0.1727,0.41309 0.1788,0.16031 0.4809,0.16031 0.2466,0 0.4316,-0.11715 0.1911,-0.11714 0.2959,-0.32061 0.111,-0.20346 0.111,-0.46858 v -0.70288 q 0,-0.38227 -0.1541,-0.54874 -0.1542,-0.17264 -0.5056,-0.17264 -0.2158,0 -0.4316,0.0555 -0.2158,0.0555 -0.4563,0.1788 -0.086,0.0432 -0.1479,0.0308 -0.062,-0.0185 -0.099,-0.0678 -0.037,-0.0493 -0.043,-0.11098 -0.01,-0.0678 0.025,-0.12948 0.037,-0.0616 0.111,-0.0986 0.2713,-0.13564 0.5364,-0.1973 0.2651,-0.0617 0.5056,-0.0617 0.3884,0 0.6412,0.12948 0.2528,0.12331 0.3761,0.38226 0.1233,0.25279 0.1233,0.65356 v 1.67087 q 0,0.12332 -0.062,0.19114 -0.055,0.0678 -0.1665,0.0678 -0.1172,0 -0.1788,-0.0678 -0.062,-0.0678 -0.062,-0.19114 v -0.48091 h 0.055 q -0.049,0.23429 -0.1911,0.40076 -0.1357,0.16647 -0.3391,0.25896 -0.2035,0.0925 -0.4563,0.0925 z"
           style="stroke-width:1.06421"
           id="path12841" />
        <path
           d="m 1230.619,495.35911 q -0.4501,0 -0.7769,-0.1973 -0.3268,-0.1973 -0.5056,-0.54874 -0.1726,-0.3576 -0.1726,-0.82619 0,-0.3576 0.099,-0.64122 0.099,-0.28362 0.2898,-0.48092 0.1912,-0.20346 0.4563,-0.30828 0.2713,-0.10481 0.6104,-0.10481 0.2219,0 0.4624,0.0678 0.2405,0.0678 0.4378,0.23429 0.062,0.0432 0.08,0.10482 0.018,0.0617 0,0.12331 -0.019,0.0555 -0.062,0.0987 -0.043,0.037 -0.111,0.0432 -0.062,0.006 -0.1295,-0.0432 -0.1603,-0.12331 -0.3268,-0.17264 -0.1665,-0.0493 -0.3206,-0.0493 -0.2405,0 -0.4193,0.0802 -0.1788,0.074 -0.3021,0.2158 -0.1233,0.1418 -0.1911,0.35144 -0.062,0.20963 -0.062,0.48708 0,0.5364 0.2528,0.85085 0.2528,0.30828 0.7214,0.30828 0.1541,0 0.3145,-0.0493 0.1664,-0.0493 0.3329,-0.17264 0.068,-0.0493 0.1295,-0.0432 0.062,0.006 0.1048,0.0493 0.043,0.037 0.055,0.0987 0.018,0.0617 0,0.12332 -0.018,0.0555 -0.08,0.0987 -0.1973,0.1603 -0.4316,0.23429 -0.2343,0.0678 -0.4562,0.0678 z"
           style="stroke-width:1.06421"
           id="path12843" />
        <path
           d="m 1233.4921,495.35911 q -0.4747,0 -0.82,-0.18497 -0.3391,-0.19113 -0.5302,-0.53641 -0.185,-0.34527 -0.185,-0.82619 0,-0.46858 0.185,-0.81385 0.1849,-0.35144 0.5056,-0.54874 0.3267,-0.1973 0.7522,-0.1973 0.3021,0 0.5425,0.10481 0.2405,0.0986 0.407,0.28979 0.1726,0.19113 0.2589,0.46242 0.092,0.27128 0.092,0.61039 0,0.0986 -0.055,0.14797 -0.055,0.0432 -0.1603,0.0432 h -2.1456 v -0.32677 h 2.0285 l -0.099,0.0802 q 0,-0.33294 -0.099,-0.56107 -0.099,-0.23429 -0.2898,-0.3576 -0.185,-0.12332 -0.4686,-0.12332 -0.3145,0 -0.5364,0.14798 -0.2158,0.14181 -0.3268,0.40076 -0.111,0.25279 -0.111,0.5919 v 0.037 q 0,0.56724 0.2713,0.86319 0.2775,0.29595 0.783,0.29595 0.2097,0 0.4131,-0.0555 0.2097,-0.0555 0.407,-0.18497 0.086,-0.0555 0.1541,-0.0493 0.074,0 0.1172,0.0432 0.043,0.037 0.055,0.0986 0.019,0.0555 -0.012,0.12331 -0.025,0.0678 -0.1048,0.11715 -0.2035,0.14797 -0.4809,0.22813 -0.2775,0.0802 -0.5488,0.0802 z"
           style="stroke-width:1.06421"
           id="path12845" />
        <path
           d="m 1237.062,495.35294 q -0.148,0 -0.2404,-0.0678 -0.086,-0.0678 -0.1049,-0.1788 -0.018,-0.11715 0.043,-0.25896 l 1.6277,-3.60687 q 0.08,-0.1788 0.1912,-0.25279 0.1171,-0.0802 0.2651,-0.0802 0.1418,0 0.2528,0.0802 0.1171,0.074 0.1973,0.25279 l 1.6339,3.60687 q 0.068,0.14181 0.049,0.25896 -0.019,0.11715 -0.1048,0.18497 -0.086,0.0616 -0.2282,0.0616 -0.1726,0 -0.2713,-0.0802 -0.092,-0.0863 -0.1664,-0.25895 l -0.4008,-0.93101 0.333,0.2158 h -2.6019 l 0.3329,-0.2158 -0.3946,0.93101 q -0.08,0.1788 -0.1665,0.25895 -0.086,0.0802 -0.2466,0.0802 z m 1.7695,-3.53905 -0.8631,2.05314 -0.1603,-0.19729 h 2.0593 l -0.1542,0.19729 -0.8693,-2.05314 z"
           style="font-weight:bold;-inkscape-font-specification:'Nunito Bold';stroke-width:1.06421"
           id="path12847" />
        <path
           d="m 1242.9255,496.46892 q -0.3268,0 -0.6412,-0.0802 -0.3083,-0.074 -0.5611,-0.24045 -0.074,-0.0432 -0.099,-0.10482 -0.019,-0.0617 -0.01,-0.12331 0.012,-0.0555 0.055,-0.10482 0.043,-0.0432 0.099,-0.0555 0.062,-0.0123 0.1233,0.0185 0.2713,0.16647 0.518,0.22813 0.2466,0.0616 0.487,0.0616 0.4378,0 0.6598,-0.23429 0.2281,-0.23429 0.2281,-0.67822 v -0.69671 h 0.062 q -0.092,0.35761 -0.3946,0.56724 -0.2959,0.20963 -0.6967,0.20963 -0.4131,0 -0.7152,-0.18497 -0.3021,-0.19113 -0.4686,-0.53024 -0.1603,-0.33911 -0.1603,-0.78303 0,-0.33295 0.092,-0.60423 0.092,-0.27745 0.2651,-0.46859 0.1788,-0.1973 0.4255,-0.30211 0.2528,-0.11098 0.561,-0.11098 0.407,0 0.7029,0.20963 0.296,0.20346 0.3823,0.5549 l -0.062,0.074 v -0.5734 q 0,-0.12331 0.062,-0.18497 0.068,-0.0678 0.1849,-0.0678 0.1234,0 0.185,0.0678 0.062,0.0617 0.062,0.18497 v 2.57105 q 0,0.68438 -0.3453,1.02966 -0.3391,0.35144 -1.005,0.35144 z m -0.074,-1.64005 q 0.2898,0 0.4994,-0.12948 0.2097,-0.13564 0.3206,-0.38227 0.1172,-0.24662 0.1172,-0.57956 0,-0.49942 -0.2528,-0.7892 -0.2528,-0.29595 -0.6844,-0.29595 -0.2836,0 -0.4932,0.13564 -0.2097,0.12948 -0.3268,0.37611 -0.111,0.24045 -0.111,0.5734 0,0.49941 0.2528,0.79536 0.2528,0.29595 0.6782,0.29595 z"
           style="stroke-width:1.06421"
           id="path12849" />
        <path
           d="m 1246.5632,495.35911 q -0.4747,0 -0.82,-0.18497 -0.3391,-0.19113 -0.5303,-0.53641 -0.1849,-0.34527 -0.1849,-0.82619 0,-0.46858 0.1849,-0.81385 0.185,-0.35144 0.5056,-0.54874 0.3268,-0.1973 0.7522,-0.1973 0.3021,0 0.5426,0.10481 0.2405,0.0986 0.4069,0.28979 0.1727,0.19113 0.259,0.46242 0.092,0.27128 0.092,0.61039 0,0.0986 -0.055,0.14797 -0.056,0.0432 -0.1603,0.0432 h -2.1457 v -0.32677 h 2.0285 l -0.099,0.0802 q 0,-0.33294 -0.099,-0.56107 -0.099,-0.23429 -0.2898,-0.3576 -0.1849,-0.12332 -0.4685,-0.12332 -0.3145,0 -0.5365,0.14798 -0.2157,0.14181 -0.3267,0.40076 -0.111,0.25279 -0.111,0.5919 v 0.037 q 0,0.56724 0.2713,0.86319 0.2774,0.29595 0.783,0.29595 0.2096,0 0.4131,-0.0555 0.2096,-0.0555 0.4069,-0.18497 0.086,-0.0555 0.1542,-0.0493 0.074,0 0.1171,0.0432 0.043,0.037 0.055,0.0986 0.018,0.0555 -0.012,0.12331 -0.025,0.0678 -0.1048,0.11715 -0.2035,0.14797 -0.481,0.22813 -0.2774,0.0802 -0.5487,0.0802 z"
           style="stroke-width:1.06421"
           id="path12851" />
        <path
           d="m 1248.7397,495.34678 q -0.1234,0 -0.185,-0.0678 -0.062,-0.0678 -0.062,-0.19114 v -2.57105 q 0,-0.12331 0.062,-0.18497 0.062,-0.0678 0.1788,-0.0678 0.1171,0 0.1788,0.0678 0.068,0.0617 0.068,0.18497 v 0.53024 l -0.068,-0.074 q 0.1295,-0.3576 0.4193,-0.5364 0.2959,-0.18497 0.6782,-0.18497 0.3576,0 0.5919,0.12948 0.2404,0.12947 0.3576,0.39459 0.1171,0.25896 0.1171,0.65972 v 1.65238 q 0,0.12332 -0.068,0.19114 -0.062,0.0678 -0.1788,0.0678 -0.1233,0 -0.1911,-0.0678 -0.062,-0.0678 -0.062,-0.19114 v -1.62155 q 0,-0.41926 -0.1665,-0.61039 -0.1603,-0.1973 -0.5179,-0.1973 -0.4131,0 -0.6597,0.25895 -0.2404,0.25279 -0.2404,0.67822 v 1.49207 q 0,0.25896 -0.2528,0.25896 z"
           style="stroke-width:1.06421"
           id="path12853" />
        <path
           d="m 1253.2652,495.35911 q -0.4501,0 -0.7768,-0.1973 -0.3268,-0.1973 -0.5056,-0.54874 -0.1727,-0.3576 -0.1727,-0.82619 0,-0.3576 0.099,-0.64122 0.099,-0.28362 0.2898,-0.48092 0.1911,-0.20346 0.4562,-0.30828 0.2713,-0.10481 0.6104,-0.10481 0.222,0 0.4624,0.0678 0.2405,0.0678 0.4378,0.23429 0.062,0.0432 0.08,0.10482 0.018,0.0617 0,0.12331 -0.018,0.0555 -0.062,0.0987 -0.043,0.037 -0.111,0.0432 -0.062,0.006 -0.1295,-0.0432 -0.1603,-0.12331 -0.3267,-0.17264 -0.1665,-0.0493 -0.3207,-0.0493 -0.2404,0 -0.4192,0.0802 -0.1788,0.074 -0.3021,0.2158 -0.1233,0.1418 -0.1912,0.35144 -0.062,0.20963 -0.062,0.48708 0,0.5364 0.2528,0.85085 0.2528,0.30828 0.7213,0.30828 0.1542,0 0.3145,-0.0493 0.1665,-0.0493 0.3329,-0.17264 0.068,-0.0493 0.1295,-0.0432 0.062,0.006 0.1048,0.0493 0.043,0.037 0.055,0.0987 0.019,0.0617 0,0.12332 -0.018,0.0555 -0.08,0.0987 -0.1973,0.1603 -0.4316,0.23429 -0.2343,0.0678 -0.4563,0.0678 z"
           style="stroke-width:1.06421"
           id="path12855" />
        <path
           d="m 1255.5388,496.45659 q -0.092,0 -0.1479,-0.0493 -0.056,-0.0493 -0.068,-0.13564 -0.01,-0.0802 0.031,-0.16647 l 0.4254,-0.95567 v 0.2158 l -1.1838,-2.74986 q -0.037,-0.0925 -0.025,-0.17264 0.012,-0.0802 0.074,-0.12948 0.062,-0.0493 0.1727,-0.0493 0.099,0 0.1541,0.0432 0.055,0.0432 0.099,0.15414 l 1.0111,2.47857 h -0.1665 l 1.0235,-2.47857 q 0.049,-0.11098 0.1048,-0.15414 0.055,-0.0432 0.1603,-0.0432 0.099,0 0.148,0.0493 0.055,0.0493 0.062,0.12948 0.012,0.074 -0.025,0.16647 l -1.5784,3.65004 q -0.049,0.11098 -0.111,0.15414 -0.055,0.0432 -0.1603,0.0432 z"
           style="stroke-width:1.06421"
           id="path12857" />
      </g>
    </g>
  </g>
</svg>
