<?xml version="1.0" encoding="UTF-8" standalone="no"?>
<svg
   version="1.1"
   id="Layer_1"
   x="0px"
   y="0px"
   viewBox="0 0 419.04197 477.35387"
   xml:space="preserve"
   sodipodi:docname="rocket.svg"
   width="419.04196"
   height="477.35388"
   inkscape:version="1.2 (dc2aedaf03, 2022-05-15)"
   xmlns:inkscape="http://www.inkscape.org/namespaces/inkscape"
   xmlns:sodipodi="http://sodipodi.sourceforge.net/DTD/sodipodi-0.dtd"
   xmlns="http://www.w3.org/2000/svg"
   xmlns:svg="http://www.w3.org/2000/svg"><defs
     id="defs43860" /><sodipodi:namedview
     id="namedview43858"
     pagecolor="#ffffff"
     bordercolor="#000000"
     borderopacity="0.25"
     inkscape:showpageshadow="2"
     inkscape:pageopacity="0.0"
     inkscape:pagecheckerboard="0"
     inkscape:deskcolor="#d1d1d1"
     showgrid="false"
     inkscape:zoom="0.91007927"
     inkscape:cx="11.537457"
     inkscape:cy="166.46902"
     inkscape:window-width="1920"
     inkscape:window-height="991"
     inkscape:window-x="-9"
     inkscape:window-y="-9"
     inkscape:window-maximized="1"
     inkscape:current-layer="Layer_1" /><g
     id="g64946"
     style="display:inline;opacity:0.550532"
     transform="matrix(3.247536,0,0,3.247536,-15640.077,-4059.3651)"><path
       sodipodi:type="star"
       style="opacity:1;fill:#e0e2f0;fill-opacity:1;stroke:#e0e2f0;stroke-width:85.1679;stroke-linecap:round;stroke-linejoin:round;stroke-miterlimit:15.6;stroke-dasharray:none;stroke-opacity:1"
       id="path55551"
       inkscape:flatsided="true"
       sodipodi:sides="6"
       sodipodi:cx="22139.629"
       sodipodi:cy="5208.6738"
       sodipodi:r1="581.63696"
       sodipodi:r2="290.81848"
       sodipodi:arg1="0.50617514"
       sodipodi:arg2="1.0297739"
       inkscape:rounded="0"
       inkscape:randomized="0"
       d="m 22648.332,5490.6721 -498.569,299.5504 -508.703,-281.9983 -10.134,-581.5487 498.569,-299.5503 508.703,281.9982 z"
       transform="matrix(0.11773232,0.00137482,-0.00137482,0.11773232,2281.1107,679.81062)"
       inkscape:transform-center-x="-2.1743012"
       inkscape:transform-center-y="-25.07746" /><path
       sodipodi:type="star"
       style="opacity:1;fill:#495182;fill-opacity:1;stroke:#e0e2f0;stroke-width:37.1679;stroke-linecap:round;stroke-linejoin:round;stroke-miterlimit:15.6;stroke-dasharray:none;stroke-opacity:1"
       id="path59546"
       inkscape:flatsided="true"
       sodipodi:sides="6"
       sodipodi:cx="22139.629"
       sodipodi:cy="5208.6738"
       sodipodi:r1="581.63696"
       sodipodi:r2="290.81848"
       sodipodi:arg1="0.50617514"
       sodipodi:arg2="1.0297739"
       inkscape:rounded="0"
       inkscape:randomized="0"
       d="m 22648.332,5490.6721 -498.569,299.5504 -508.703,-281.9983 -10.134,-581.5487 498.569,-299.5503 508.703,281.9982 z"
       transform="matrix(0.11773232,0.00137482,-0.00137482,0.11773232,2281.1107,679.81062)"
       inkscape:transform-center-x="-2.1743012"
       inkscape:transform-center-y="-25.07746" /><path
       sodipodi:type="star"
       style="opacity:1;fill:#495182;fill-opacity:1;stroke:#e0e2f0;stroke-width:64.8607;stroke-linecap:round;stroke-linejoin:round;stroke-miterlimit:15.6;stroke-dasharray:none;stroke-opacity:1"
       id="path60274"
       inkscape:flatsided="true"
       sodipodi:sides="6"
       sodipodi:cx="22139.629"
       sodipodi:cy="5208.6738"
       sodipodi:r1="581.63696"
       sodipodi:r2="290.81848"
       sodipodi:arg1="0.50617514"
       sodipodi:arg2="1.0297739"
       inkscape:rounded="0"
       inkscape:randomized="0"
       d="m 22648.332,5490.6721 -498.569,299.5504 -508.703,-281.9983 -10.134,-581.5487 498.569,-299.5503 508.703,281.9982 z"
       transform="matrix(0.09130154,0.00107028,-0.00106617,0.0916529,2864.8434,823.28635)"
       inkscape:transform-center-x="-1.6860918"
       inkscape:transform-center-y="-19.522391" /></g><g
     id="g43855"
     transform="matrix(1.3914004,0,0,1.3914004,125.58873,159.05865)"
     style="fill:#e0e2f0;fill-opacity:1;stroke-width:0.7187;opacity:0.72340426"><path
       d="m 15.36,86.24 c 1.14,-0.89 2.79,-0.68 3.68,0.46 0.89,1.14 0.68,2.79 -0.46,3.68 L 5.35,100.66 5.25,114.51 21.5,113.6 30.32,99.58 c 0.77,-1.22 2.39,-1.59 3.61,-0.82 1.22,0.77 1.59,2.39 0.82,3.61 l -9.5,15.09 c -0.43,0.73 -1.21,1.24 -2.12,1.29 L 2.76,119.9 v 0 c -0.05,0 -0.1,0 -0.15,0 C 1.17,119.89 0,118.72 0.01,117.27 L 0.14,99.56 C 0.08,98.71 0.43,97.85 1.15,97.29 Z M 40.09,53.93 C 46.69,34.2 55.59,20.21 68.11,11.4 81.1,2.25 97.8,-1.21 119.68,0.37 c 1.51,0.11 2.67,1.35 2.69,2.83 2.12,23.69 -2.48,40.49 -12.28,53.22 -9.43,12.24 -23.58,20.52 -41.14,27.47 v 23.13 c 0,1.13 -0.65,2.12 -1.6,2.59 l -17.88,11.05 c -1.36,0.84 -3.14,0.42 -3.98,-0.94 -0.22,-0.36 -0.36,-0.75 -0.41,-1.14 v 0 C 41.12,88.32 36.91,86.87 12.17,78.31 9.21,77.29 6.02,76.18 3.86,75.42 2.35,74.89 1.56,73.23 2.09,71.73 2.2,71.41 2.37,71.12 2.57,70.86 l 11.79,-16.8 c 0.59,-0.84 1.55,-1.28 2.5,-1.23 v 0 z M 90.71,31.64 c -1.6,-1.6 -3.8,-2.58 -6.24,-2.58 -2.43,0 -4.64,0.99 -6.24,2.58 -1.6,1.6 -2.58,3.8 -2.58,6.24 0,2.43 0.99,4.64 2.58,6.24 1.6,1.6 3.8,2.58 6.24,2.58 2.43,0 4.64,-0.99 6.24,-2.58 1.6,-1.6 2.58,-3.8 2.58,-6.24 0,-2.44 -0.99,-4.64 -2.58,-6.24 z"
       id="path43853"
       style="fill:#e0e2f0;fill-opacity:1;stroke-width:0.7187" /></g></svg>
