<?xml version="1.0" encoding="UTF-8" standalone="no"?>
<!-- Created with Inkscape (http://www.inkscape.org/) -->

<svg
   width="110.87152mm"
   height="126.29988mm"
   viewBox="0 0 110.87152 126.29988"
   version="1.1"
   id="svg1972"
   xml:space="preserve"
   sodipodi:docname="solar_panel.svg"
   inkscape:version="1.2 (dc2aedaf03, 2022-05-15)"
   xmlns:inkscape="http://www.inkscape.org/namespaces/inkscape"
   xmlns:sodipodi="http://sodipodi.sourceforge.net/DTD/sodipodi-0.dtd"
   xmlns="http://www.w3.org/2000/svg"
   xmlns:svg="http://www.w3.org/2000/svg"><sodipodi:namedview
     id="namedview1974"
     pagecolor="#ffffff"
     bordercolor="#000000"
     borderopacity="0.25"
     inkscape:showpageshadow="2"
     inkscape:pageopacity="0.0"
     inkscape:pagecheckerboard="0"
     inkscape:deskcolor="#d1d1d1"
     inkscape:document-units="mm"
     showgrid="false"
     inkscape:zoom="1.4324916"
     inkscape:cx="-34.904219"
     inkscape:cy="102.96745"
     inkscape:window-width="1920"
     inkscape:window-height="991"
     inkscape:window-x="-9"
     inkscape:window-y="-9"
     inkscape:window-maximized="1"
     inkscape:current-layer="layer1" /><defs
     id="defs1969" /><g
     inkscape:label="Layer 1"
     inkscape:groupmode="layer"
     id="layer1"
     transform="translate(-41.717241,-72.420929)"><g
       id="g64946"
       style="display:inline;opacity:0.550532"
       transform="matrix(0.85924388,0,0,0.85924388,-4096.3864,-1001.6194)"><path
         sodipodi:type="star"
         style="opacity:1;fill:#e0e2f0;fill-opacity:1;stroke:#e0e2f0;stroke-width:85.1679;stroke-linecap:round;stroke-linejoin:round;stroke-miterlimit:15.6;stroke-dasharray:none;stroke-opacity:1"
         id="path55551"
         inkscape:flatsided="true"
         sodipodi:sides="6"
         sodipodi:cx="22139.629"
         sodipodi:cy="5208.6738"
         sodipodi:r1="581.63696"
         sodipodi:r2="290.81848"
         sodipodi:arg1="0.50617514"
         sodipodi:arg2="1.0297739"
         inkscape:rounded="0"
         inkscape:randomized="0"
         d="m 22648.332,5490.6721 -498.569,299.5504 -508.703,-281.9983 -10.134,-581.5487 498.569,-299.5503 508.703,281.9982 z"
         transform="matrix(0.11773232,0.00137482,-0.00137482,0.11773232,2281.1107,679.81062)"
         inkscape:transform-center-x="-2.1743012"
         inkscape:transform-center-y="-25.07746" /><path
         sodipodi:type="star"
         style="opacity:1;fill:#495182;fill-opacity:1;stroke:#e0e2f0;stroke-width:37.1679;stroke-linecap:round;stroke-linejoin:round;stroke-miterlimit:15.6;stroke-dasharray:none;stroke-opacity:1"
         id="path59546"
         inkscape:flatsided="true"
         sodipodi:sides="6"
         sodipodi:cx="22139.629"
         sodipodi:cy="5208.6738"
         sodipodi:r1="581.63696"
         sodipodi:r2="290.81848"
         sodipodi:arg1="0.50617514"
         sodipodi:arg2="1.0297739"
         inkscape:rounded="0"
         inkscape:randomized="0"
         d="m 22648.332,5490.6721 -498.569,299.5504 -508.703,-281.9983 -10.134,-581.5487 498.569,-299.5503 508.703,281.9982 z"
         transform="matrix(0.11773232,0.00137482,-0.00137482,0.11773232,2281.1107,679.81062)"
         inkscape:transform-center-x="-2.1743012"
         inkscape:transform-center-y="-25.07746" /><path
         sodipodi:type="star"
         style="opacity:1;fill:#495182;fill-opacity:1;stroke:#e0e2f0;stroke-width:64.8607;stroke-linecap:round;stroke-linejoin:round;stroke-miterlimit:15.6;stroke-dasharray:none;stroke-opacity:1"
         id="path60274"
         inkscape:flatsided="true"
         sodipodi:sides="6"
         sodipodi:cx="22139.629"
         sodipodi:cy="5208.6738"
         sodipodi:r1="581.63696"
         sodipodi:r2="290.81848"
         sodipodi:arg1="0.50617514"
         sodipodi:arg2="1.0297739"
         inkscape:rounded="0"
         inkscape:randomized="0"
         d="m 22648.332,5490.6721 -498.569,299.5504 -508.703,-281.9983 -10.134,-581.5487 498.569,-299.5503 508.703,281.9982 z"
         transform="matrix(0.09130154,0.00107028,-0.00106617,0.0916529,2864.8434,823.28635)"
         inkscape:transform-center-x="-1.6860918"
         inkscape:transform-center-y="-19.522391" /></g><path
       d="m 85.220877,113.34047 c -0.423122,-0.24248 -0.565748,-0.7797 -0.323285,-1.20281 0.242465,-0.42313 0.779688,-0.56575 1.202811,-0.32329 l 1.963482,1.13149 c 0.423123,0.24247 0.565748,0.7797 0.323286,1.20282 -0.242464,0.42312 -0.779689,0.56573 -1.202811,0.32329 z m 18.165783,11.94728 0.41836,4.20747 h 7.84442 l -0.77017,-4.20747 z m 9.54166,0 0.77018,4.20747 h 6.1424 l -1.16,-4.20747 z m 7.46884,6.23274 h -6.32784 l 0.59428,3.25663 h 6.6321 z m 1.45954,5.29143 h -6.81752 l 0.59427,3.25661 h 7.11703 z m 1.45478,5.28191 h -7.3072 l 1.11248,6.0806 h 7.8682 z m -8.24853,6.0806 -1.11247,-6.0806 h -8.89985 l 0.60377,6.0806 z m -11.44334,0 -0.60379,-6.0806 h -11.0012 l -0.831984,6.0806 z m -14.471769,0 0.831983,-6.0806 h -8.405413 l -1.411996,6.0806 z m -11.058254,0 1.411995,-6.0806 h -6.503736 l -1.673475,6.0806 z m -4.530745,-8.1059 h 6.413406 l 0.755916,-3.25661 h -6.275535 z m 1.454783,-5.29141 h 6.18045 l 0.755917,-3.25663 h -6.037826 z m 1.454783,-5.2819 h 5.95225 l 0.979364,-4.20747 h -5.771591 z m 9.004441,-4.20747 -0.979363,4.20747 h 7.202603 l 0.575258,-4.20747 z m 8.828542,0 c 0,0.0381 -0.005,0.0714 -0.009,0.10932 l -0.561,4.09811 h 8.044099 l -0.41835,-4.20746 z m 31.130459,24.91197 h -25.14018 v 9.36101 h 7.74458 v 4.27402 H 88.27307 v -4.27402 h 7.744581 v -9.36101 H 70.877476 c -0.147378,0 -0.304268,-0.0237 -0.461157,-0.0664 -0.309022,-0.0855 -0.599028,-0.25198 -0.812968,-0.47542 -0.270988,-0.28051 -0.442138,-0.64183 -0.442138,-1.05068 0,-0.1188 0.019,-0.24722 0.05705,-0.38035 v 0 l 6.479965,-23.52849 c 0.09984,-0.35656 0.266235,-0.70362 0.527715,-0.96509 0.290006,-0.29003 0.665588,-0.47068 1.136252,-0.47068 h 12.608121 c -0.722637,-1.19329 -1.141006,-2.59103 -1.141006,-4.08859 0,-2.17744 0.884279,-4.15043 2.310537,-5.58143 1.426258,-1.42625 3.399244,-2.31054 5.581424,-2.31054 2.18218,0 4.150399,0.88429 5.581429,2.31054 1.42626,1.42625 2.31053,3.39925 2.31053,5.58143 0,1.49756 -0.41837,2.8953 -1.141,4.08859 h 15.47965 c 0.42788,0 0.77492,0.15219 1.05067,0.39935 0.0286,0.0238 0.0572,0.0476 0.0808,0.0714 0.26148,0.26147 0.42789,0.60855 0.52772,0.96511 l 6.48472,23.53325 c 0.0381,0.13782 0.0572,0.26147 0.0572,0.37557 0,0.40887 -0.17107,0.7702 -0.44216,1.04592 -0.21394,0.22346 -0.50869,0.38985 -0.81296,0.47543 -0.16172,0.0476 -0.31853,0.0714 -0.4659,0.0714 z m -21.4319,-18.67923 0.32328,3.25663 h 8.29132 l -0.59428,-3.25663 z m -19.972375,0 -0.755917,3.25663 h 7.701793 l 0.442141,-3.25663 z m 9.427566,0 -0.44214,3.25663 h 9.284949 l -0.32329,-3.25663 z m 11.072519,5.29143 0.32328,3.25661 h 8.73346 l -0.59427,-3.25661 z m -21.726666,0 -0.755918,3.25661 h 8.210492 l 0.442141,-3.25661 z m 9.931509,0 -0.442141,3.25661 H 102.8209 l -0.32329,-3.25661 z m -3.056946,-28.43483 c -0.242464,-0.42313 -0.09983,-0.96035 0.323284,-1.20283 0.423124,-0.24246 0.960348,-0.1 1.202811,0.3233 l 1.131499,1.95872 c 0.242464,0.42313 0.09983,0.96036 -0.318531,1.20283 -0.423123,0.24246 -0.960348,0.0998 -1.202811,-0.3233 z m 6.337344,-2.07758 c 0,-0.48969 0.39459,-0.8843 0.88428,-0.8843 0.48968,0 0.88427,0.39461 0.88427,0.8843 v 2.263 c 0,0.48968 -0.39459,0.88427 -0.88427,0.88427 -0.48969,0 -0.88428,-0.39459 -0.88428,-0.88427 z m 6.537019,1.3787 c 0.24246,-0.42312 0.77969,-0.56574 1.20281,-0.32328 0.42311,0.24246 0.56575,0.77969 0.32329,1.20281 l -1.13151,1.96349 c -0.24246,0.42313 -0.77968,0.56573 -1.20281,0.32329 -0.42313,-0.24247 -0.56574,-0.77969 -0.32328,-1.20281 z m 4.96338,4.4547 c 0.42312,-0.24247 0.96035,-0.1 1.2028,0.32327 0.24247,0.42313 0.1,0.96035 -0.32327,1.20281 l -1.95874,1.1315 c -0.42311,0.24246 -0.96034,0.1 -1.20281,-0.31852 -0.24246,-0.42313 -0.1,-0.96035 0.3233,-1.20283 z m 2.07758,6.33733 c 0.48968,0 0.88427,0.3946 0.88427,0.88428 0,0.48968 -0.39459,0.88427 -0.88427,0.88427 h -2.263 c -0.48968,0 -0.88428,-0.39459 -0.88428,-0.88427 0,-0.48968 0.3946,-0.88428 0.88428,-0.88428 z m -25.748719,1.40725 c -0.489683,0 -0.88428,-0.39462 -0.88428,-0.8843 0,-0.48968 0.394597,-0.88427 0.88428,-0.88427 h 2.262996 c 0.489683,0 0.884281,0.39459 0.884281,0.88427 0,0.48968 -0.394598,0.8843 -0.884281,0.8843 z"
       id="path2150"
       style="fill:#e0e2f0;fill-opacity:0.81642514;stroke-width:0.264583" /></g></svg>
